<svg width="215" height="44" viewBox="0 0 215 44" fill="none" xmlns="http://www.w3.org/2000/svg">
<path d="M16 6.396C7.16 6.396 0 13.56 0 22.396C0 29.4667 4.584 35.4627 10.94 37.576C11.74 37.7267 12.0333 37.232 12.0333 36.8067C12.0333 36.4267 12.02 35.42 12.0133 34.0867C7.56267 35.052 6.624 31.94 6.624 31.94C5.896 30.0933 4.844 29.6 4.844 29.6C3.39467 28.608 4.956 28.628 4.956 28.628C6.56267 28.74 7.40667 30.276 7.40667 30.276C8.83333 32.7227 11.152 32.016 12.0667 31.6067C12.2107 30.572 12.6227 29.8667 13.08 29.4667C9.52667 29.0667 5.792 27.6907 5.792 21.56C5.792 19.8133 6.412 18.3867 7.43867 17.2667C7.25867 16.8627 6.71867 15.236 7.57867 13.032C7.57867 13.032 8.91867 12.6027 11.9787 14.672C13.2587 14.316 14.6187 14.14 15.9787 14.132C17.3387 14.14 18.6987 14.316 19.9787 14.672C23.0187 12.6027 24.3587 13.032 24.3587 13.032C25.2187 15.236 24.6787 16.8627 24.5187 17.2667C25.5387 18.3867 26.1587 19.8133 26.1587 21.56C26.1587 27.7067 22.4187 29.06 18.8587 29.4533C19.4187 29.9333 19.9387 30.9147 19.9387 32.4133C19.9387 34.5547 19.9187 36.2747 19.9187 36.7947C19.9187 37.2147 20.1987 37.7147 21.0187 37.5547C27.42 35.456 32 29.456 32 22.396C32 13.56 24.836 6.396 16 6.396" fill="#2D2D2D"/>
<path d="M59.5469 21.1719H68.6094V33.0156C67.1406 33.4948 65.7552 33.8281 64.4531 34.0156C63.1615 34.2135 61.8385 34.3125 60.4844 34.3125C57.0365 34.3125 54.401 33.3021 52.5781 31.2812C50.7656 29.25 49.8594 26.3385 49.8594 22.5469C49.8594 18.8594 50.9115 15.9844 53.0156 13.9219C55.1302 11.8594 58.0573 10.8281 61.7969 10.8281C64.1406 10.8281 66.401 11.2969 68.5781 12.2344L66.9688 16.1094C65.3021 15.276 63.5677 14.8594 61.7656 14.8594C59.6719 14.8594 57.9948 15.5625 56.7344 16.9688C55.474 18.375 54.8438 20.2656 54.8438 22.6406C54.8438 25.1198 55.349 27.0156 56.3594 28.3281C57.3802 29.6302 58.8594 30.2812 60.7969 30.2812C61.8073 30.2812 62.8333 30.1771 63.875 29.9688V25.2031H59.5469V21.1719ZM92.7812 34H87.9531V24.1406H78.9062V34H74.0625V11.1562H78.9062V20.1094H87.9531V11.1562H92.7812V34ZM119.906 11.1562H124.797L117.031 34H111.75L104 11.1562H108.891L113.188 24.75C113.427 25.5521 113.672 26.4896 113.922 27.5625C114.182 28.625 114.344 29.3646 114.406 29.7812C114.521 28.8229 114.911 27.1458 115.578 24.75L119.906 11.1562ZM127.109 12.0156C127.109 10.4635 127.974 9.6875 129.703 9.6875C131.432 9.6875 132.297 10.4635 132.297 12.0156C132.297 12.7552 132.078 13.3333 131.641 13.75C131.214 14.1562 130.568 14.3594 129.703 14.3594C127.974 14.3594 127.109 13.5781 127.109 12.0156ZM132.078 34H127.312V16.5312H132.078V34ZM144.328 19.5938C143.318 19.5938 142.526 19.9167 141.953 20.5625C141.38 21.1979 141.052 22.1042 140.969 23.2812H147.656C147.635 22.1042 147.328 21.1979 146.734 20.5625C146.141 19.9167 145.339 19.5938 144.328 19.5938ZM145 34.3125C142.188 34.3125 139.99 33.5365 138.406 31.9844C136.823 30.4323 136.031 28.2344 136.031 25.3906C136.031 22.4635 136.76 20.2031 138.219 18.6094C139.688 17.0052 141.714 16.2031 144.297 16.2031C146.766 16.2031 148.688 16.9062 150.062 18.3125C151.438 19.7188 152.125 21.6615 152.125 24.1406V26.4531H140.859C140.911 27.8073 141.312 28.8646 142.062 29.625C142.812 30.3854 143.865 30.7656 145.219 30.7656C146.271 30.7656 147.266 30.6562 148.203 30.4375C149.141 30.2188 150.12 29.8698 151.141 29.3906V33.0781C150.307 33.4948 149.417 33.8021 148.469 34C147.521 34.2083 146.365 34.3125 145 34.3125ZM170.359 34L169.016 27.8906L167.203 20.1719H167.094L163.906 34H158.781L153.812 16.5312H158.562L160.578 24.2656C160.901 25.651 161.229 27.5625 161.562 30H161.656C161.698 29.2083 161.88 27.9531 162.203 26.2344L162.453 24.9062L164.609 16.5312H169.859L171.906 24.9062C171.948 25.1354 172.01 25.474 172.094 25.9219C172.188 26.3698 172.276 26.849 172.359 27.3594C172.443 27.8594 172.516 28.3542 172.578 28.8438C172.651 29.3229 172.693 29.7083 172.703 30H172.797C172.891 29.25 173.057 28.224 173.297 26.9219C173.536 25.6094 173.708 24.724 173.812 24.2656L175.906 16.5312H180.578L175.547 34H170.359ZM190.641 19.5938C189.63 19.5938 188.839 19.9167 188.266 20.5625C187.693 21.1979 187.365 22.1042 187.281 23.2812H193.969C193.948 22.1042 193.641 21.1979 193.047 20.5625C192.453 19.9167 191.651 19.5938 190.641 19.5938ZM191.312 34.3125C188.5 34.3125 186.302 33.5365 184.719 31.9844C183.135 30.4323 182.344 28.2344 182.344 25.3906C182.344 22.4635 183.073 20.2031 184.531 18.6094C186 17.0052 188.026 16.2031 190.609 16.2031C193.078 16.2031 195 16.9062 196.375 18.3125C197.75 19.7188 198.438 21.6615 198.438 24.1406V26.4531H187.172C187.224 27.8073 187.625 28.8646 188.375 29.625C189.125 30.3854 190.177 30.7656 191.531 30.7656C192.583 30.7656 193.578 30.6562 194.516 30.4375C195.453 30.2188 196.432 29.8698 197.453 29.3906V33.0781C196.62 33.4948 195.729 33.8021 194.781 34C193.833 34.2083 192.677 34.3125 191.312 34.3125ZM212.062 16.2031C212.708 16.2031 213.245 16.25 213.672 16.3438L213.312 20.8125C212.927 20.7083 212.458 20.6562 211.906 20.6562C210.385 20.6562 209.198 21.0469 208.344 21.8281C207.5 22.6094 207.078 23.7031 207.078 25.1094V34H202.312V16.5312H205.922L206.625 19.4688H206.859C207.401 18.4896 208.13 17.7031 209.047 17.1094C209.974 16.5052 210.979 16.2031 212.062 16.2031Z" fill="#2D2D2D"/>
</svg>
